<?xml version="1.0" encoding="utf-8"?>
<!-- Generator: Adobe Illustrator 16.0.0, SVG Export Plug-In . SVG Version: 6.00 Build 0)  -->
<!DOCTYPE svg PUBLIC "-//W3C//DTD SVG 1.1//EN" "http://www.w3.org/Graphics/SVG/1.1/DTD/svg11.dtd">
<svg version="1.1" id="Layer_1" xmlns="http://www.w3.org/2000/svg" xmlns:xlink="http://www.w3.org/1999/xlink" x="0px" y="0px"
	 width="100px" height="100px" viewBox="0 0 100 100" enable-background="new 0 0 100 100" xml:space="preserve">
<g>
	<path fill="#231F20" d="M64.336,97.903"/>
	<path fill="#231F20" d="M35.066,97.73"/>
	<path fill="#231F20" d="M100,50c0-27.614-22.387-50-50-50C22.386,0,0,22.386,0,50c0,22.412,14.747,41.379,35.066,47.73
		c1.455-0.822,2.563-1.884,2.563-3.219c0-1.188-0.044-4.334-0.068-8.508C23.648,89.026,20.713,79.3,20.713,79.3
		c-2.274-5.779-5.554-7.317-5.554-7.317c-4.541-3.104,0.344-3.041,0.344-3.041c5.019,0.354,7.662,5.155,7.662,5.155
		c4.462,7.644,11.706,5.437,14.557,4.156c0.453-3.232,1.746-5.437,3.175-6.687c-11.107-1.263-22.783-5.554-22.783-24.722
		c0-5.46,1.949-9.925,5.148-13.422c-0.514-1.266-2.231-6.351,0.49-13.237c0,0,4.2-1.345,13.755,5.128
		c3.99-1.11,8.269-1.664,12.522-1.684c4.25,0.02,8.526,0.573,12.523,1.684c9.551-6.473,13.742-5.128,13.742-5.128
		c2.729,6.887,1.011,11.972,0.498,13.237c3.202,3.497,5.139,7.962,5.139,13.422c0,19.216-11.693,23.443-22.836,24.683
		c1.796,1.544,3.395,4.596,3.395,9.262c0,6.688-0.061,12.083-0.061,13.723c0,0.563,0.436,2.083,1.907,3.392
		C84.961,91.738,100,72.63,100,50z"/>
</g>
</svg>
