<?xml version="1.0" encoding="utf-8"?>
<!-- Generator: Adobe Illustrator 16.0.0, SVG Export Plug-In . SVG Version: 6.00 Build 0)  -->
<!DOCTYPE svg PUBLIC "-//W3C//DTD SVG 1.1//EN" "http://www.w3.org/Graphics/SVG/1.1/DTD/svg11.dtd">
<svg version="1.1" id="Layer_1" xmlns="http://www.w3.org/2000/svg" xmlns:xlink="http://www.w3.org/1999/xlink" x="0px" y="0px"
	 width="447px" height="231px" viewBox="0 0 447 231" enable-background="new 0 0 447 231" xml:space="preserve">
<g>
	<path fill="#B3B3B3" d="M35.017,104.508v-5.442h2.721c4.898,0,8.164-2.857,8.164-8.164v-65.31c0-5.306-3.266-8.164-8.164-8.164
		h-2.721v-5.442h53.064c25.036,0,33.335,9.116,33.335,20.409c0,11.974-7.211,18.504-17.552,22.586v0.272
		c15.375,2.857,23.675,11.702,23.675,22.451c0,18.913-17.96,26.804-42.724,26.804H35.017z M78.965,53.756
		c2.993,0,11.157-1.769,11.157-17.96c0-16.328-6.123-17.008-10.885-17.008h-1.361v34.968H78.965z M77.876,60.56v31.703
		c0,3.674,2.721,6.259,6.259,6.259c3.946,0,12.11-2.993,12.11-18.913c0-17.144-9.252-19.049-14.015-19.049H77.876z"/>
	<path fill="#B3B3B3" d="M198.295,97.296c-6.531,5.442-13.742,9.933-29.253,9.933c-24.491,0-39.458-15.919-39.458-35.512
		c0-23.403,15.375-39.322,37.961-39.322c22.314,0,30.75,15.103,30.75,33.744h-38.914c2.041,20.817,12.654,29.39,23.539,29.39
		c5.442,0,11.565-1.769,15.375-4.898V97.296z M167.545,60.696c4.218,0,6.123-2.177,6.123-6.803c0-7.075-1.905-11.565-6.803-11.565
		c-4.898,0-7.892,5.17-7.892,14.695v3.674H167.545z"/>
	<path fill="#B3B3B3" d="M267.689,97.296c-6.531,5.442-15.239,9.933-30.07,9.933c-22.314,0-37.281-15.919-37.281-35.512
		c0-23.403,15.375-39.322,41.227-39.322c20.41,0,26.26,11.837,26.26,19.457c0,5.851-3.129,11.974-11.701,11.974
		c-5.851,0-10.341-4.082-10.341-9.933c0-8.028-2.721-11.565-7.892-11.565c-4.898,0-8.844,3.674-8.844,14.695
		c0,26.94,12.518,38.506,25.171,38.506c5.443,0,9.661-1.769,13.47-4.898V97.296z"/>
	<path fill="#B3B3B3" d="M334.499,97.296c-6.531,5.442-15.239,9.933-30.07,9.933c-22.314,0-37.281-15.919-37.281-35.512
		c0-23.403,15.375-39.322,41.227-39.322c20.41,0,26.26,11.837,26.26,19.457c0,5.851-3.129,11.974-11.701,11.974
		c-5.851,0-10.341-4.082-10.341-9.933c0-8.028-2.721-11.565-7.892-11.565c-4.898,0-8.844,3.674-8.844,14.695
		c0,26.94,12.518,38.506,25.171,38.506c5.443,0,9.661-1.769,13.47-4.898V97.296z"/>
	<path fill="#B3B3B3" d="M415.186,83.418h5.851v7.62c0,7.483-6.531,16.191-19.729,16.191c-11.838,0-16.056-7.075-17.28-13.878
		c-5.851,8.028-13.062,13.878-27.213,13.878c-12.653,0-20.137-5.851-20.137-16.872c0-12.246,10.613-21.77,41.499-30.614V48.722
		c0-6.531-3.81-8.572-7.756-8.572c-3.945,0-7.619,2.857-7.619,8.572c0,1.905,0.271,3.538,0.816,7.347
		c0,3.674-4.354,9.252-11.021,9.252c-7.347,0-10.885-5.17-10.885-11.157c0-9.796,9.388-21.77,34.016-21.77
		c25.58,0,33.743,13.062,33.743,25.58v33.471c0,1.633,0.681,3.81,2.857,3.81s2.857-2.177,2.857-3.81V83.418z M378.177,65.322
		c-7.075,4.082-9.524,13.742-9.524,20.409c0,5.443,1.089,8.436,4.626,8.436c2.857,0,4.898-2.449,4.898-5.714V65.322z"/>
	<path fill="#B3B3B3" d="M95.837,207.508l-42.18-72.794h-0.272v59.188c0,5.715,3.946,8.164,8.164,8.164h2.721v5.442H35.017v-5.442
		h2.721c4.218,0,8.164-2.449,8.164-8.164v-65.31c0-5.442-3.946-8.164-8.164-8.164h-2.721v-5.442h42.724l29.797,51.976h0.272v-38.369
		c0-5.579-3.946-8.164-8.164-8.164h-2.721v-5.442h29.253v5.442h-2.721c-4.218,0-8.164,2.857-8.164,8.164v78.916H95.837z"/>
	<path fill="#B3B3B3" d="M197.207,186.418h5.851v7.62c0,7.483-6.531,16.191-19.729,16.191c-11.837,0-16.055-7.075-17.28-13.879
		c-5.851,8.027-13.062,13.879-27.212,13.879c-12.654,0-20.137-5.852-20.137-16.872c0-12.246,10.613-21.771,41.499-30.614v-11.021
		c0-6.53-3.81-8.571-7.756-8.571s-7.619,2.857-7.619,8.571c0,1.905,0.272,3.538,0.816,7.348c0,3.674-4.354,9.253-11.021,9.253
		c-7.347,0-10.885-5.171-10.885-11.157c0-9.797,9.388-21.771,34.016-21.771c25.58,0,33.744,13.062,33.744,25.58v33.471
		c0,1.633,0.68,3.811,2.857,3.811c2.177,0,2.857-2.178,2.857-3.811V186.418z M160.198,168.322
		c-7.075,4.081-9.524,13.742-9.524,20.409c0,5.442,1.088,8.436,4.626,8.436c2.857,0,4.898-2.449,4.898-5.715V168.322z"/>
	<path fill="#B3B3B3" d="M252.724,207.508v-9.524c-4.898,6.259-12.518,12.246-24.764,12.246c-15.511,0-22.178-9.933-22.178-21.771
		v-28.573l-9.524-9.524c11.021-3.401,30.886-11.021,40.818-16.327v52.656c0,5.307,2.041,8.571,6.667,8.571
		c4.49,0,7.619-3.129,7.619-8.3v-27.076l-9.524-9.524c11.021-3.401,30.886-11.021,40.819-16.327v61.228
		c0,4.627,2.585,6.804,6.803,6.804h2.721v5.442H252.724z"/>
	<path fill="#B3B3B3" d="M294.227,207.508v-5.442h2.721c4.218,0,6.803-2.177,6.803-6.804v-65.31l-9.524-9.524
		c11.021-3.401,30.886-11.021,40.819-16.328v91.162c0,4.627,2.585,6.804,6.803,6.804h2.721v5.442H294.227z"/>
</g>
</svg>
